<?xml version="1.0" encoding="UTF-8" standalone="no"?>
<svg
   xmlns:dc="http://purl.org/dc/elements/1.1/"
   xmlns:cc="http://creativecommons.org/ns#"
   xmlns:rdf="http://www.w3.org/1999/02/22-rdf-syntax-ns#"
   xmlns:svg="http://www.w3.org/2000/svg"
   xmlns="http://www.w3.org/2000/svg"
   xmlns:sodipodi="http://sodipodi.sourceforge.net/DTD/sodipodi-0.dtd"
   xmlns:inkscape="http://www.inkscape.org/namespaces/inkscape"
   version="1.1"
   id="Capa_1"
   x="0px"
   y="0px"
   viewBox="0 0 49.80592 49.807442"
   xml:space="preserve"
   sodipodi:docname="t-3.svg"
   width="49.80592"
   height="49.807442"
   inkscape:version="1.0.1 (3bc2e813f5, 2020-09-07)"><metadata
   id="metadata39"><rdf:RDF><cc:Work
       rdf:about=""><dc:format>image/svg+xml</dc:format><dc:type
         rdf:resource="http://purl.org/dc/dcmitype/StillImage" /><dc:title></dc:title></cc:Work></rdf:RDF></metadata><defs
   id="defs37" /><sodipodi:namedview
   pagecolor="#ffffff"
   bordercolor="#666666"
   borderopacity="1"
   objecttolerance="10"
   gridtolerance="10"
   guidetolerance="10"
   inkscape:pageopacity="0"
   inkscape:pageshadow="2"
   inkscape:window-width="1366"
   inkscape:window-height="705"
   id="namedview35"
   showgrid="false"
   fit-margin-top="0"
   fit-margin-left="0"
   fit-margin-right="0"
   fit-margin-bottom="0"
   inkscape:zoom="2.8394757"
   inkscape:cx="16.482466"
   inkscape:cy="33.036245"
   inkscape:window-x="-8"
   inkscape:window-y="-8"
   inkscape:window-maximized="1"
   inkscape:current-layer="Capa_1" />
<path
   style="fill:#455a64;stroke-width:0.0972798"
   d="m 49.774919,48.51849 -1.24518,-4.98073 c -0.59078,-2.41623 -2.3819,-4.3594 -4.7421,-5.14464 l -9.13136,-3.04243 c -2.22683,-0.92766 -3.24574,-4.51378 -3.46579,-5.87521 1.69676,-1.41095 2.78853,-3.41841 3.0507,-5.60954 -0.0375,-0.37424 0.0509,-0.75032 0.25107,-1.06881 0.32356,-0.081 0.58845,-0.31276 0.7118,-0.62259 0.59749,-1.44675 0.97251,-2.9756 1.1124,-4.53451 2.9e-4,-0.0847 -0.0101,-0.16907 -0.0311,-0.25108 -0.14865,-0.60576 -0.50479,-1.14031 -1.00656,-1.51085 v -5.50166 c 0,-3.34331 -1.02105,-4.71505 -2.09609,-5.50993 C 32.977449,3.25615 31.252879,0 24.902449,0 19.268299,0.22685 14.752769,4.74239 14.525909,10.37654 v 5.50166 c -0.50177,0.37054 -0.85791,0.90509 -1.00655,1.51085 -0.021,0.082 -0.0314,0.16645 -0.0311,0.25108 0.13969,1.55969 0.5147,3.08922 1.11239,4.53664 0.0899,0.2933 0.3256,0.51889 0.62259,0.59565 0.11625,0.0581 0.33416,0.35906 0.33416,1.09371 0.26372,2.19736 1.36182,4.2094 3.06733,5.61995 -0.21791,1.3593 -1.23069,4.94337 -3.39517,5.84817 l -9.2122898,3.05897 c -2.35836,0.78514 -4.14831,2.72636 -4.73996,5.14055 L 0.03212924,48.5145 c -0.14096,0.55547 0.19504,1.12008 0.75051,1.26104 0.083,0.0211 0.16829,0.0318 0.25389996,0.0319 H 48.768519 c 0.57308,-1.9e-4 1.03749,-0.4649 1.0374,-1.03797 -1e-4,-0.0847 -0.0105,-0.16898 -0.0309,-0.25098 z"
   id="path2" />
<g
   id="g4"
   transform="translate(-231.09797,-231.09728)">
</g>
<g
   id="g6"
   transform="translate(-231.09797,-231.09728)">
</g>
<g
   id="g8"
   transform="translate(-231.09797,-231.09728)">
</g>
<g
   id="g10"
   transform="translate(-231.09797,-231.09728)">
</g>
<g
   id="g12"
   transform="translate(-231.09797,-231.09728)">
</g>
<g
   id="g14"
   transform="translate(-231.09797,-231.09728)">
</g>
<g
   id="g16"
   transform="translate(-231.09797,-231.09728)">
</g>
<g
   id="g18"
   transform="translate(-231.09797,-231.09728)">
</g>
<g
   id="g20"
   transform="translate(-231.09797,-231.09728)">
</g>
<g
   id="g22"
   transform="translate(-231.09797,-231.09728)">
</g>
<g
   id="g24"
   transform="translate(-231.09797,-231.09728)">
</g>
<g
   id="g26"
   transform="translate(-231.09797,-231.09728)">
</g>
<g
   id="g28"
   transform="translate(-231.09797,-231.09728)">
</g>
<g
   id="g30"
   transform="translate(-231.09797,-231.09728)">
</g>
<g
   id="g32"
   transform="translate(-231.09797,-231.09728)">
</g>
</svg>
